<svg xmlns="http://www.w3.org/2000/svg" width="39.217" height="39.216" viewBox="0 0 39.217 39.216">
  <path id="inst_icon" d="M594.016,1578.077a3.927,3.927,0,0,0-2.249-2.249,6.559,6.559,0,0,0-2.2-.408c-1.25-.057-1.624-.069-4.788-.069s-3.538.012-4.788.069a6.554,6.554,0,0,0-2.2.408,3.924,3.924,0,0,0-2.248,2.249,6.55,6.55,0,0,0-.408,2.2c-.057,1.25-.069,1.624-.069,4.788s.012,3.538.069,4.787a6.56,6.56,0,0,0,.408,2.2,3.923,3.923,0,0,0,2.248,2.248,6.523,6.523,0,0,0,2.2.408c1.249.057,1.624.069,4.788.069s3.539-.012,4.788-.069a6.527,6.527,0,0,0,2.2-.408,3.926,3.926,0,0,0,2.249-2.248,6.561,6.561,0,0,0,.408-2.2c.057-1.249.069-1.624.069-4.787s-.012-3.538-.069-4.788A6.551,6.551,0,0,0,594.016,1578.077Zm-9.236,13.071a6.084,6.084,0,1,1,6.084-6.084A6.084,6.084,0,0,1,584.779,1591.148Zm6.324-10.986a1.422,1.422,0,1,1,1.422-1.422A1.422,1.422,0,0,1,591.1,1580.162Zm-2.375,4.9a3.949,3.949,0,1,1-3.949-3.95A3.949,3.949,0,0,1,588.728,1585.065Zm-3.949-19.825a19.608,19.608,0,1,0,19.608,19.608A19.609,19.609,0,0,0,584.779,1565.24Zm11.776,24.709a8.677,8.677,0,0,1-.55,2.875,6.058,6.058,0,0,1-3.465,3.466,8.706,8.706,0,0,1-2.876.551c-1.264.057-1.667.071-4.885.071s-3.621-.014-4.885-.071a8.7,8.7,0,0,1-2.876-.551,6.058,6.058,0,0,1-3.465-3.466,8.675,8.675,0,0,1-.55-2.875c-.058-1.264-.072-1.668-.072-4.885s.014-3.621.072-4.885a8.683,8.683,0,0,1,.55-2.876,6.057,6.057,0,0,1,3.465-3.465,8.7,8.7,0,0,1,2.876-.551c1.264-.057,1.667-.071,4.885-.071s3.621.014,4.885.071a8.7,8.7,0,0,1,2.876.551,6.057,6.057,0,0,1,3.465,3.465,8.685,8.685,0,0,1,.55,2.876c.058,1.264.072,1.668.072,4.885S596.614,1588.686,596.556,1589.949Z" transform="translate(-565.171 -1565.24)" fill="#fff"/>
</svg>
