<?xml version="1.0" encoding="UTF-8"?> <svg xmlns="http://www.w3.org/2000/svg" id="Layer_1" data-name="Layer 1" viewBox="0 0 481.06 80.5"><defs><style>.cls-1{fill:#231f20;}</style></defs><path class="cls-1" d="M465.4,40.25h0a12.84,12.84,0,0,1-.84,4.63,11.52,11.52,0,0,1-2.33,3.78,10.62,10.62,0,0,1-3.56,2.54,11.13,11.13,0,0,1-4.58.94,11,11,0,0,1-4.6-1,11.14,11.14,0,0,1-3.62-2.59,11.55,11.55,0,0,1-2.34-3.81,13.12,13.12,0,0,1,0-9.24,11.6,11.6,0,0,1,2.32-3.78,11,11,0,0,1,3.57-2.54,11.56,11.56,0,0,1,9.18,0,10.85,10.85,0,0,1,3.61,2.59,11.41,11.41,0,0,1,2.35,3.81,12.66,12.66,0,0,1,.84,4.61m6.18-.1h0a17.62,17.62,0,0,0-1.29-6.71,17,17,0,0,0-3.59-5.5,16.79,16.79,0,0,0-5.52-3.72,18.1,18.1,0,0,0-7.09-1.37,17.81,17.81,0,0,0-7.1,1.39A17.48,17.48,0,0,0,441.44,28a16.76,16.76,0,0,0-3.65,5.53,18.23,18.23,0,0,0,0,13.42,16.69,16.69,0,0,0,9.11,9.21A17.89,17.89,0,0,0,454,57.54a17.59,17.59,0,0,0,7.09-1.39,17.34,17.34,0,0,0,5.56-3.76,17,17,0,0,0,3.64-5.53,17.44,17.44,0,0,0,1.3-6.71M426.47,51.61h0l-3.78-3.84A20.56,20.56,0,0,1,418.32,51a11.08,11.08,0,0,1-5.27,1.18,10.57,10.57,0,0,1-4.43-.94,10.82,10.82,0,0,1-3.52-2.56,11.48,11.48,0,0,1-2.31-3.81,13.33,13.33,0,0,1-.82-4.67,13.14,13.14,0,0,1,.82-4.65,11.19,11.19,0,0,1,2.31-3.76,11,11,0,0,1,3.52-2.54,10.57,10.57,0,0,1,4.43-.94,11.13,11.13,0,0,1,5.12,1.15,19,19,0,0,1,4.27,3l3.78-4.37a23.21,23.21,0,0,0-2.54-2.1,16,16,0,0,0-2.92-1.66,17.72,17.72,0,0,0-3.48-1.08,20.84,20.84,0,0,0-4.2-.39,17.47,17.47,0,0,0-7,1.37,16.65,16.65,0,0,0-9,9.27,18.6,18.6,0,0,0,0,13.56,16.59,16.59,0,0,0,9,9.16,17.09,17.09,0,0,0,6.81,1.33,21,21,0,0,0,4.28-.4,14.7,14.7,0,0,0,3.57-1.2,18.51,18.51,0,0,0,3-1.87,20.23,20.23,0,0,0,2.73-2.46M308.15,42.84h0V57H314V23.44h-5.84V37.38H292V23.44H286.2V57H292V42.84Zm-34.43,8.77h0l-3.78-3.84A20.76,20.76,0,0,1,265.58,51a11.11,11.11,0,0,1-5.27,1.18,10.62,10.62,0,0,1-4.44-.94,10.82,10.82,0,0,1-3.52-2.56,11.62,11.62,0,0,1-2.3-3.81,13.33,13.33,0,0,1-.81-4.67,12.92,12.92,0,0,1,.81-4.65,11.5,11.5,0,0,1,2.3-3.76,11.06,11.06,0,0,1,3.52-2.54,10.62,10.62,0,0,1,4.44-.94,11.23,11.23,0,0,1,5.13,1.15,18.91,18.91,0,0,1,4.26,3l3.78-4.37a22.3,22.3,0,0,0-2.54-2.1A16,16,0,0,0,268,24.32a17.51,17.51,0,0,0-3.48-1.08,20.81,20.81,0,0,0-4.19-.39,17.52,17.52,0,0,0-7,1.37,16.76,16.76,0,0,0-9,9.27,18.6,18.6,0,0,0,0,13.56,16.86,16.86,0,0,0,3.57,5.49,16.68,16.68,0,0,0,5.39,3.67,17,17,0,0,0,6.8,1.33,21.07,21.07,0,0,0,4.29-.4,14.62,14.62,0,0,0,3.56-1.2,18.1,18.1,0,0,0,3-1.87,19.57,19.57,0,0,0,2.72-2.46M223.4,23.44h0V57h5.84V23.44ZM210.59,57h0l-9.05-12.69a12.4,12.4,0,0,0,3.22-1.37,9.64,9.64,0,0,0,4.17-5.08,10.79,10.79,0,0,0,.6-3.76,11,11,0,0,0-.86-4.44,9,9,0,0,0-2.48-3.36,11.35,11.35,0,0,0-3.93-2.1,16.81,16.81,0,0,0-5.19-.74h-15v5.32h14.45a8.21,8.21,0,0,1,5.14,1.41,5,5,0,0,1,1.84,4.21,5.06,5.06,0,0,1-1.88,4.13,7.61,7.61,0,0,1-5,1.54H182.13V57H188V45.28h7.41L203.64,57ZM161.37,46.62h0L143.44,23.44H138V57h5.84V33.11L162.28,57h4.93V23.44h-5.84ZM99.58,37.37h0V57h25.06V51.65H105.43v-9h16.82V37.37H99.58ZM124.4,23.44H99.58v5.31H124.4V23.44Z"></path><path class="cls-1" d="M353.25,36.61h0c-1.33-1.47-2.54-2.94-2.54-5a3.78,3.78,0,0,1,4-4.07,3.61,3.61,0,0,1,3.83,3.84c0,3-2.83,4.35-5.27,5.26M348,38.39a13,13,0,0,0-5.29,3.81,9.53,9.53,0,0,0-1,9.6c1.87,3.94,5.86,5.66,10.09,5.66a14.68,14.68,0,0,0,10.3-4.37l4.45,4.55,4.37-3.11-5.27-5.37a54.23,54.23,0,0,0,4.55-7.66l-4.45-2.35C363,46.87,353.49,59.38,343.1,49c4.66-.73,8.23-9.32,14.77-2.63-2.69,2-6.34,2.76-9.56,3.35,6.58-.41,9.13-.5,13-4.91l-4.93-5c4.12-1.52,7.38-4,7.38-8.76,0-5.09-4.15-8.15-8.92-8.15-5,0-9.63,3.1-9.63,8.48a11.1,11.1,0,0,0,2.78,7"></path><path class="cls-1" d="M43.21,21.33h0a18.91,18.91,0,1,0,17,27.28H53.58a13.33,13.33,0,1,1-.95-17.8,13.43,13.43,0,0,1,.95,1.05h6.59a18.91,18.91,0,0,0-17-10.53m0-14.81A33.73,33.73,0,0,1,76.82,43H35.13a8.66,8.66,0,0,1,0-5.57H71.22a28.13,28.13,0,1,0-1.13,11.16h5.8A33.73,33.73,0,1,1,43.21,6.52"></path></svg> 