<svg xmlns="http://www.w3.org/2000/svg" xmlns:xlink="http://www.w3.org/1999/xlink" width="282.257" height="41.317" viewBox="0 0 282.257 41.317">
  <defs>
    <clipPath id="clip-path">
      <rect id="Rectangle_3273" data-name="Rectangle 3273" width="282.257" height="41.317" fill="#fff"/>
    </clipPath>
  </defs>
  <g id="enrich_logo" clip-path="url(#clip-path)">
    <path id="Path_1188" data-name="Path 1188" d="M347.7,41.268h0a7.823,7.823,0,0,1-.514,2.835,7.054,7.054,0,0,1-1.424,2.316,6.578,6.578,0,0,1-2.183,1.556,6.781,6.781,0,0,1-2.805.573,6.692,6.692,0,0,1-2.817-.585,6.765,6.765,0,0,1-2.215-1.586,7.139,7.139,0,0,1-1.436-2.336,8.077,8.077,0,0,1,0-5.657,7.065,7.065,0,0,1,1.426-2.318,6.642,6.642,0,0,1,2.183-1.556,7.113,7.113,0,0,1,5.623.012,6.744,6.744,0,0,1,2.212,1.588,7.046,7.046,0,0,1,1.436,2.333,7.713,7.713,0,0,1,.514,2.825m3.788-.061h0A10.784,10.784,0,0,0,350.7,37.1a10.383,10.383,0,0,0-2.2-3.373,10.274,10.274,0,0,0-3.378-2.274,11.064,11.064,0,0,0-4.344-.838,10.852,10.852,0,0,0-4.344.851,10.683,10.683,0,0,0-3.4,2.306,10.29,10.29,0,0,0-2.232,3.39,10.681,10.681,0,0,0-.789,4.108,10.823,10.823,0,0,0,.789,4.108,10.22,10.22,0,0,0,5.576,5.645,11,11,0,0,0,4.342.838,10.8,10.8,0,0,0,4.344-.85,10.655,10.655,0,0,0,3.4-2.3,10.392,10.392,0,0,0,2.232-3.39,10.687,10.687,0,0,0,.8-4.108m-27.63,7.016h0l-2.316-2.347a12.7,12.7,0,0,1-2.673,1.954,6.81,6.81,0,0,1-3.228.718,6.447,6.447,0,0,1-2.714-.573,6.644,6.644,0,0,1-2.159-1.569,7.106,7.106,0,0,1-1.411-2.333,8.152,8.152,0,0,1-.5-2.859,8.02,8.02,0,0,1,.5-2.849,6.94,6.94,0,0,1,1.411-2.3,6.751,6.751,0,0,1,2.159-1.556,6.447,6.447,0,0,1,2.714-.573,6.777,6.777,0,0,1,3.137.706,11.593,11.593,0,0,1,2.613,1.851l2.316-2.672a14.179,14.179,0,0,0-1.556-1.291,9.936,9.936,0,0,0-1.792-1.013,10.533,10.533,0,0,0-2.129-.664,12.907,12.907,0,0,0-2.569-.236,10.637,10.637,0,0,0-4.283.838,10.2,10.2,0,0,0-5.534,5.676,11.41,11.41,0,0,0,.012,8.307,10.175,10.175,0,0,0,5.49,5.605,10.416,10.416,0,0,0,4.169.819,13.072,13.072,0,0,0,2.623-.246,9.039,9.039,0,0,0,2.186-.738,11.339,11.339,0,0,0,1.864-1.146,11.824,11.824,0,0,0,1.669-1.507m-72.468-5.369h0V51.51h3.577V30.969h-3.577v8.543H241.53V30.969h-3.577V51.51h3.577V42.853Zm-21.083,5.369h0l-2.316-2.347a12.814,12.814,0,0,1-2.672,1.954,6.819,6.819,0,0,1-3.228.718,6.447,6.447,0,0,1-2.714-.573,6.588,6.588,0,0,1-2.159-1.569,7.094,7.094,0,0,1-1.406-2.333,8.152,8.152,0,0,1-.5-2.859,7.857,7.857,0,0,1,.5-2.849,7.009,7.009,0,0,1,1.406-2.3,6.775,6.775,0,0,1,2.159-1.556,6.447,6.447,0,0,1,2.714-.573,6.828,6.828,0,0,1,3.144.706,11.571,11.571,0,0,1,2.611,1.851l2.316-2.672a13.733,13.733,0,0,0-1.556-1.291,9.99,9.99,0,0,0-1.79-1.013,10.6,10.6,0,0,0-2.131-.664,12.907,12.907,0,0,0-2.569-.236,10.644,10.644,0,0,0-4.283.838,10.2,10.2,0,0,0-5.527,5.676,11.41,11.41,0,0,0,.012,8.307,10.232,10.232,0,0,0,9.652,6.424,13.118,13.118,0,0,0,2.626-.246,9.058,9.058,0,0,0,2.183-.738,11.231,11.231,0,0,0,1.864-1.146,12.065,12.065,0,0,0,1.664-1.507M199.49,30.969h0V51.51h3.577V30.969Zm-7.847,20.54h0L186.1,43.734a7.532,7.532,0,0,0,1.976-.838,5.91,5.91,0,0,0,2.552-3.112,6.642,6.642,0,0,0,.369-2.3,6.714,6.714,0,0,0-.531-2.717,5.512,5.512,0,0,0-1.514-2.055,6.915,6.915,0,0,0-2.407-1.29,10.44,10.44,0,0,0-3.184-.452H174.2v3.257h8.848a5.011,5.011,0,0,1,3.149.868,3.05,3.05,0,0,1,1.124,2.577,3.1,3.1,0,0,1-1.148,2.532,4.678,4.678,0,0,1-3.088.942h-8.872V51.5h3.577V44.348h4.536l5.062,7.161ZM161.5,45.17h0l-10.98-14.2h-3.341V51.51h3.577V36.895l11.3,14.615h3.016V30.969H161.5Zm-37.843-5.665h0v12H139V48.253H127.239v-5.49h10.3V39.505H123.654Zm15.2-8.536h-15.2v3.258h15.2V30.969Z" transform="translate(-69.234 -17.14)" fill="#fff"/>
    <path id="Path_1189" data-name="Path 1189" d="M467,39.055h0a4.606,4.606,0,0,1-1.556-3.083,2.313,2.313,0,0,1,2.436-2.491,2.208,2.208,0,0,1,2.348,2.348c0,1.834-1.733,2.665-3.228,3.225m-3.228,1.087a8.013,8.013,0,0,0-3.24,2.336,5.831,5.831,0,0,0-.614,5.881c1.141,2.414,3.589,3.464,6.178,3.464a9,9,0,0,0,6.308-2.675l2.726,2.788,2.672-1.906-3.226-3.289a33.137,33.137,0,0,0,2.785-4.693l-2.726-1.436c-1.682,4.725-7.486,12.386-13.851,6.021,2.854-.452,5.037-5.711,9.044-1.615a14.434,14.434,0,0,1-5.853,2.055c4.032-.253,5.593-.307,7.953-3.009L468.908,41c2.52-.934,4.516-2.473,4.516-5.367,0-3.119-2.539-4.99-5.458-4.99-3.041,0-5.9,1.9-5.9,5.194a6.811,6.811,0,0,0,1.7,4.307" transform="translate(-257.212 -17.155)" fill="#fff"/>
    <path id="Path_1190" data-name="Path 1190" d="M20.656,9.072h0a11.583,11.583,0,1,0,10.387,16.71H27.009a8.165,8.165,0,1,1-.58-10.906,8.06,8.06,0,0,1,.58.647h4.034A11.574,11.574,0,0,0,20.656,9.072m0-9.072a20.665,20.665,0,0,1,20.59,22.369H15.71a5.292,5.292,0,0,1,0-3.415h22.1a17.241,17.241,0,1,0-.7,6.835h3.555A20.66,20.66,0,1,1,20.656,0" transform="translate(0 0)" fill="#fff"/>
  </g>
</svg>
