<svg xmlns="http://www.w3.org/2000/svg" xmlns:xlink="http://www.w3.org/1999/xlink" width="271.818" height="95.077" viewBox="0 0 271.818 95.077">
  <defs>
    <clipPath id="clip-path">
      <rect id="Rectangle_2" data-name="Rectangle 2" width="271.818" height="95.077" fill="none"/>
    </clipPath>
  </defs>
  <g id="mango_logo" clip-path="url(#clip-path)">
    <path id="Path_1" data-name="Path 1" d="M121.1,21.124a17.342,17.342,0,0,0-5.589-10.742,13.319,13.319,0,0,1,.535,2.485c1.052,9.057-10.157,11.961-9.256,17.715,1.952,12.308,1.9,19.063-3.8,20.965C87.779,56.656,77.169,47.32,72.371,36.29c3.011,16.343,20.949,28.976,37.82,25.366,6.506-1.4,11.659-5.256,9.057-19.815C118,35.035,122.6,31.832,121.1,21.124" transform="translate(93.073 13.352)" fill="#fab916"/>
    <path id="Path_2" data-name="Path 2" d="M103.269,54.79c5.7-1.9,5.754-8.657,3.8-20.965-.9-5.754,10.308-8.657,9.258-17.715a13.2,13.2,0,0,0-.537-2.487C108.986,7.471,97.679,6.65,90.108,9.254A26.36,26.36,0,0,0,72.544,38.977c.032.187.073.37.107.556C77.45,50.563,88.06,59.9,103.269,54.79" transform="translate(92.792 10.109)" fill="#f79420"/>
    <path id="Path_3" data-name="Path 3" d="M87.072,1.986c6.6-.3,8.557,1.852,9.256,2.752-2.2-.251-9.206-.5-19.964,4.753-1.152.551-1.751.9-1.751.9.6-.3,1.2-.6,1.751-.9a39.365,39.365,0,0,1,20.216-3.5c-.35,6.355-10.758,7.105-15.662,6.255-5.155-.9-16.364,5.3-16.364,5.3S78.766,2.336,87.072,1.986" transform="translate(83.02 2.518)" fill="#b1d036"/>
    <path id="Path_4" data-name="Path 4" d="M91.291,10.27a3.8,3.8,0,1,0,3.9,3.8,3.855,3.855,0,0,0-3.9-3.8" transform="translate(112.387 13.208)" fill="#f9ce96"/>
    <path id="Path_5" data-name="Path 5" d="M91.825,15.323c-1.061,1.175-2.215,2.24-3.223,3.285a2.408,2.408,0,0,0,1.584.585,2.3,2.3,0,0,0,2.352-2.252,2.2,2.2,0,0,0-.713-1.619" transform="translate(113.947 19.706)" fill="#ffdc93"/>
    <path id="Path_6" data-name="Path 6" d="M90.619,15.046A2.3,2.3,0,0,0,88.267,17.3a2.2,2.2,0,0,0,.768,1.667c1.008-1.045,2.163-2.11,3.223-3.285a2.4,2.4,0,0,0-1.639-.633" transform="translate(113.516 19.35)" fill="#f9ce96"/>
    <path id="Path_7" data-name="Path 7" d="M79.022.652s6.255,9.007,5.3,15.961c0,0,2.752-9.206-2.352-16.613Z" transform="translate(101.626 0)" fill="#b1d036"/>
    <path id="Path_8" data-name="Path 8" d="M214.779,46.689a1.233,1.233,0,1,0-1.234-1.234,1.234,1.234,0,0,0,1.234,1.234M244.607,73.9h1.022a24.719,24.719,0,0,0,18.389-7.935,25.925,25.925,0,0,0,7.7-18.661,25.258,25.258,0,0,0-7.763-18.494,26.519,26.519,0,0,0-37.53.034,25.175,25.175,0,0,0-7.832,18.46,25.91,25.91,0,0,0,7.729,18.627A24.642,24.642,0,0,0,244.607,73.9m17.71-9.195a24.015,24.015,0,0,1-34.33,0,23.676,23.676,0,0,1-7.151-17.267,23.57,23.57,0,0,1,7.151-17.232,24.136,24.136,0,0,1,34.364,0,23.627,23.627,0,0,1,7.116,17.232,23.676,23.676,0,0,1-7.151,17.267M149.48,21.154c2.988-1.616,11.583-5.667,15.422-5.011,3.6.62,11.25.382,14.462-4.945a1.111,1.111,0,1,0-1.9-1.148c-2.4,3.989-8.6,4.522-12.182,3.9-5.384-.93-16.391,5-16.857,5.246a1.11,1.11,0,1,0,1.058,1.952m36.568-3.37c1.017-7.139-5.1-15.986-5.363-16.359A1.111,1.111,0,0,0,178.863,2.7c.059.085,5.882,8.495,4.986,14.775a1.108,1.108,0,0,0,.942,1.257l.158.011a1.113,1.113,0,0,0,1.1-.956m16.526,56.852a1.11,1.11,0,0,0-.469-2.169,29.7,29.7,0,0,1-22.783-4.931c-7.025-4.8-11.753-11.894-12.973-19.473a24.725,24.725,0,0,1,16.409-27.833,1.11,1.11,0,0,0-.718-2.1,26.922,26.922,0,0,0-17.886,30.288c1.319,8.177,6.39,15.815,13.915,20.952a33,33,0,0,0,18.494,5.9,28.42,28.42,0,0,0,6.01-.633M199.09,53.868a29.838,29.838,0,0,0,14.039-5.6A1.11,1.11,0,1,0,211.8,46.49,27.636,27.636,0,0,1,198.8,51.666a26.363,26.363,0,0,1-4.641.181,1.11,1.11,0,0,0-.105,2.217q.71.038,1.417.037a27.594,27.594,0,0,0,3.617-.233M59.529,73.02h2.11l9.537-19.479H98.488L108.16,73.02h2.384L85,20.711ZM84.8,25.409l12.87,26.157H72.061ZM117.7,73.02h1.975v-45.5l37.6,46.247V21.936h-1.975V67.367L117.7,21.188ZM49.244,21.936,26.221,69.07,3.269,21.936H0V73.02H2.041V24.592L26.018,73.973,50.131,24.592V73.02h2.247V21.936Z" transform="translate(0 1.222)" fill="#1d1c1a"/>
    <path id="Path_9" data-name="Path 9" d="M74.392,48.509h1.141V42.7h5.754V41.669H75.533V37.314h6.186V36.279H74.392Zm10.315-3.532A6.151,6.151,0,0,0,86,47.016a5.774,5.774,0,0,0,2,1.328,7.162,7.162,0,0,0,5.132,0,5.743,5.743,0,0,0,1.993-1.328,6.122,6.122,0,0,0,1.3-2.039,7.363,7.363,0,0,0,0-5.157,6.151,6.151,0,0,0-1.3-2.03,5.861,5.861,0,0,0-1.993-1.337,7.036,7.036,0,0,0-5.132,0,5.893,5.893,0,0,0-2,1.337,6.181,6.181,0,0,0-1.294,2.03,7.362,7.362,0,0,0,0,5.157m1.036-4.707a5.057,5.057,0,0,1,1.036-1.71,4.8,4.8,0,0,1,1.635-1.141,5.763,5.763,0,0,1,4.3,0,4.763,4.763,0,0,1,1.632,1.141,5.026,5.026,0,0,1,1.038,1.71,6.393,6.393,0,0,1,0,4.25,5.048,5.048,0,0,1-1.038,1.71,4.758,4.758,0,0,1-1.632,1.138,5.763,5.763,0,0,1-4.3,0,4.789,4.789,0,0,1-1.635-1.138,5.079,5.079,0,0,1-1.036-1.71,6.43,6.43,0,0,1,0-4.25m15.877-2.956h2.419a3.953,3.953,0,0,1,1.458.226,2.4,2.4,0,0,1,.873.553,1.743,1.743,0,0,1,.423.706,2.191,2.191,0,0,1,0,1.383,1.75,1.75,0,0,1-.423.709,2.4,2.4,0,0,1-.873.551,3.953,3.953,0,0,1-1.458.226h-2.419Zm-1.141,11.195h1.141V42.7h2.124l3.438,5.8h1.3l-3.559-5.873a6.353,6.353,0,0,0,1.054-.242,3.166,3.166,0,0,0,1.01-.528,2.8,2.8,0,0,0,.761-.924,3.112,3.112,0,0,0,.3-1.449,3.147,3.147,0,0,0-.261-1.349,2.825,2.825,0,0,0-.656-.914,2.745,2.745,0,0,0-.9-.553,5.5,5.5,0,0,0-.985-.277,6.7,6.7,0,0,0-.9-.1c-.277-.011-.5-.018-.656-.018h-3.214Zm16.048-1.536A4.066,4.066,0,0,0,118.27,48.4a5.728,5.728,0,0,0,2.229.423,4.574,4.574,0,0,0,1.433-.224,3.6,3.6,0,0,0,1.218-.665,3.275,3.275,0,0,0,.837-1.079,3.313,3.313,0,0,0,.311-1.468,3.016,3.016,0,0,0-.466-1.79,3.282,3.282,0,0,0-1.166-1.01,7.3,7.3,0,0,0-1.52-.578,12.309,12.309,0,0,1-1.518-.5,3.261,3.261,0,0,1-1.168-.777,1.971,1.971,0,0,1-.466-1.408,2.2,2.2,0,0,1,.224-1.02,2.142,2.142,0,0,1,.6-.716,2.582,2.582,0,0,1,.873-.432A3.7,3.7,0,0,1,120.742,37a2.926,2.926,0,0,1,1.372.3,2.885,2.885,0,0,1,1.01.905l.985-.709a3.52,3.52,0,0,0-1.477-1.182,4.812,4.812,0,0,0-1.856-.354,5.145,5.145,0,0,0-1.486.215,3.91,3.91,0,0,0-1.253.64,3.1,3.1,0,0,0-.864,1.054,3.159,3.159,0,0,0-.32,1.442,3.458,3.458,0,0,0,.27,1.452,2.8,2.8,0,0,0,.716.976,3.851,3.851,0,0,0,1.01.629,12.27,12.27,0,0,0,1.157.432c.4.128.784.254,1.159.382a5.2,5.2,0,0,1,1.01.457,2.138,2.138,0,0,1,.716.684,1.9,1.9,0,0,1,.27,1.054,2.21,2.21,0,0,1-.8,1.742,2.677,2.677,0,0,1-.873.485,3.221,3.221,0,0,1-1.07.174,3.453,3.453,0,0,1-1.632-.379,2.928,2.928,0,0,1-1.166-1.159Zm9.812,1.536h1.191l1.383-3.246h6.479l1.328,3.246H138l-5.148-12.23h-1.175Zm8.637-4.284H129.36l2.851-6.7Zm5.823,4.284h6.84V47.474h-5.7V36.279H140.8Zm9.345-3.532a6.122,6.122,0,0,0,1.3,2.039,5.743,5.743,0,0,0,1.993,1.328,7.162,7.162,0,0,0,5.132,0,5.774,5.774,0,0,0,2-1.328,6.152,6.152,0,0,0,1.294-2.039,7.363,7.363,0,0,0,0-5.157,6.182,6.182,0,0,0-1.294-2.03,5.893,5.893,0,0,0-2-1.337,7.036,7.036,0,0,0-5.132,0,5.861,5.861,0,0,0-1.993,1.337,6.151,6.151,0,0,0-1.3,2.03,7.363,7.363,0,0,0,0,5.157m1.036-4.707a5.026,5.026,0,0,1,1.038-1.71,4.764,4.764,0,0,1,1.632-1.141,5.763,5.763,0,0,1,4.3,0,4.764,4.764,0,0,1,1.632,1.141,5.025,5.025,0,0,1,1.038,1.71,6.43,6.43,0,0,1,0,4.25,5.047,5.047,0,0,1-1.038,1.71,4.758,4.758,0,0,1-1.632,1.138,5.763,5.763,0,0,1-4.3,0,4.759,4.759,0,0,1-1.632-1.138,5.048,5.048,0,0,1-1.038-1.71,6.431,6.431,0,0,1,0-4.25m14.736,8.239h1.141V37.8h.034l7.446,10.71H176V36.279h-1.141v10.71h-.034l-7.446-10.71h-1.468Z" transform="translate(95.672 46.257)" fill="#1d1c1a"/>
    <path id="Path_10" data-name="Path 10" d="M214.717,46.661a1.232,1.232,0,1,0-1.234-1.232,1.233,1.233,0,0,0,1.234,1.232m29.8,27.19h1.02a24.7,24.7,0,0,0,18.373-7.928,25.9,25.9,0,0,0,7.69-18.645A25.22,25.22,0,0,0,263.84,28.8a26.489,26.489,0,0,0-37.494.032,25.161,25.161,0,0,0-7.825,18.442,25.878,25.878,0,0,0,7.725,18.611,24.613,24.613,0,0,0,18.27,7.962m17.692-9.188a23.985,23.985,0,0,1-34.3,0,23.641,23.641,0,0,1-7.144-17.248A23.536,23.536,0,0,1,227.912,30.2a24.106,24.106,0,0,1,34.33,0,23.593,23.593,0,0,1,7.11,17.216,23.641,23.641,0,0,1-7.144,17.248M149.478,21.151c2.986-1.616,11.574-5.665,15.406-5.006,3.6.617,11.241.382,14.45-4.942a1.11,1.11,0,0,0-1.9-1.145c-2.4,3.985-8.6,4.517-12.169,3.9-5.379-.928-16.377,4.99-16.844,5.242a1.11,1.11,0,0,0,.53,2.085,1.1,1.1,0,0,0,.528-.133m36.533-3.367c1.017-7.132-5.1-15.973-5.358-16.345a1.109,1.109,0,1,0-1.817,1.271c.057.085,5.873,8.488,4.977,14.761a1.111,1.111,0,0,0,.942,1.255l.16.011a1.113,1.113,0,0,0,1.1-.953m16.51,56.8a1.11,1.11,0,0,0-.469-2.169A29.671,29.671,0,0,1,179.29,67.49c-7.016-4.794-11.739-11.885-12.96-19.454a24.7,24.7,0,0,1,16.393-27.808,1.11,1.11,0,0,0-.718-2.1,26.9,26.9,0,0,0-17.868,30.26c1.317,8.17,6.385,15.8,13.9,20.933a32.981,32.981,0,0,0,18.476,5.893,28.51,28.51,0,0,0,6.005-.631m-3.479-20.75a29.8,29.8,0,0,0,14.025-5.6,1.109,1.109,0,1,0-1.333-1.774,27.627,27.627,0,0,1-12.98,5.171,26.32,26.32,0,0,1-4.636.181,1.109,1.109,0,0,0-.107,2.215c.476.023.946.034,1.417.034a27.963,27.963,0,0,0,3.614-.231M59.611,72.967h2.11l9.526-19.461H98.533L108.2,72.967h2.382L85.059,20.705ZM84.856,25.4,97.717,51.533H72.132Zm32.867,47.566H119.7V27.511l37.564,46.2V21.931h-1.975V67.32L117.722,21.183ZM49.335,21.931l-23,47.088L3.4,21.931H.137V72.967H2.178V24.585L26.132,73.92,50.22,24.585V72.967h2.247V21.931Z" transform="translate(0.176 1.241)" fill="#221f1f"/>
    <path id="Path_11" data-name="Path 11" d="M74.512,36.066h7.32V37.1H75.653v4.35H81.4v1.036H75.653v5.8H74.512Z" transform="translate(95.826 46.383)" fill="#221f1f"/>
    <path id="Path_12" data-name="Path 12" d="M79.958,42.353a6.084,6.084,0,0,0,.361,2.124,5.047,5.047,0,0,0,1.036,1.708,4.808,4.808,0,0,0,1.632,1.141,5.793,5.793,0,0,0,4.3,0,4.808,4.808,0,0,0,1.632-1.141,5.047,5.047,0,0,0,1.036-1.708,6.386,6.386,0,0,0,0-4.247,5.047,5.047,0,0,0-1.036-1.708,4.808,4.808,0,0,0-1.632-1.141,5.793,5.793,0,0,0-4.3,0,4.807,4.807,0,0,0-1.632,1.141,5.047,5.047,0,0,0-1.036,1.708,6.084,6.084,0,0,0-.361,2.124m-1.141,0a6.9,6.9,0,0,1,.466-2.572,6.116,6.116,0,0,1,1.3-2.028,5.834,5.834,0,0,1,1.993-1.34,7.055,7.055,0,0,1,5.128,0,5.866,5.866,0,0,1,2,1.34,6.147,6.147,0,0,1,1.294,2.028,6.9,6.9,0,0,1,.466,2.572,6.973,6.973,0,0,1-.466,2.581A6.118,6.118,0,0,1,89.7,46.97a5.812,5.812,0,0,1-2,1.33,7.182,7.182,0,0,1-5.128,0,5.78,5.78,0,0,1-1.993-1.33,6.088,6.088,0,0,1-1.3-2.037,6.973,6.973,0,0,1-.466-2.581" transform="translate(101.363 46.209)" fill="#221f1f"/>
    <path id="Path_13" data-name="Path 13" d="M87.051,41.452h2.416a4,4,0,0,0,1.459-.224,2.4,2.4,0,0,0,.873-.553,1.768,1.768,0,0,0,.423-.706,2.528,2.528,0,0,0,.112-.69,2.5,2.5,0,0,0-.112-.69,1.775,1.775,0,0,0-.423-.709,2.434,2.434,0,0,0-.873-.553,4,4,0,0,0-1.459-.224H87.051ZM85.91,36.066h3.212c.162,0,.38.007.656.018a6.774,6.774,0,0,1,.9.1,5.347,5.347,0,0,1,.983.277,2.8,2.8,0,0,1,.9.551,2.87,2.87,0,0,1,.656.917,3.137,3.137,0,0,1,.258,1.346,3.083,3.083,0,0,1-.3,1.449,2.817,2.817,0,0,1-.759.924,3.205,3.205,0,0,1-1.01.526,6.353,6.353,0,0,1-1.054.242L93.9,48.29H92.61l-3.436-5.8H87.051v5.8H85.91Z" transform="translate(110.485 46.383)" fill="#221f1f"/>
    <path id="Path_14" data-name="Path 14" d="M94.007,46.2a2.922,2.922,0,0,0,1.166,1.157,3.426,3.426,0,0,0,1.632.379,3.221,3.221,0,0,0,1.07-.174,2.685,2.685,0,0,0,.871-.482,2.267,2.267,0,0,0,.588-.75,2.23,2.23,0,0,0,.217-.994,1.9,1.9,0,0,0-.267-1.052,2.167,2.167,0,0,0-.718-.684,5.338,5.338,0,0,0-1.01-.457c-.373-.126-.759-.254-1.157-.379a12.262,12.262,0,0,1-1.157-.432,3.889,3.889,0,0,1-1.01-.629,2.8,2.8,0,0,1-.716-.976,3.492,3.492,0,0,1-.267-1.449,3.152,3.152,0,0,1,.318-1.443,3.1,3.1,0,0,1,.864-1.054,3.86,3.86,0,0,1,1.253-.638,5.056,5.056,0,0,1,1.486-.215,4.808,4.808,0,0,1,1.854.352,3.526,3.526,0,0,1,1.477,1.184l-.983.706a2.885,2.885,0,0,0-1.01-.905,2.936,2.936,0,0,0-1.374-.3,3.714,3.714,0,0,0-1.054.146,2.635,2.635,0,0,0-.871.432,2.116,2.116,0,0,0-.6.716,2.192,2.192,0,0,0-.224,1.02,1.962,1.962,0,0,0,.466,1.406,3.272,3.272,0,0,0,1.166.777,12.476,12.476,0,0,0,1.52.5,7.328,7.328,0,0,1,1.518.578,3.262,3.262,0,0,1,1.166,1.01,3.006,3.006,0,0,1,.466,1.785,3.3,3.3,0,0,1-.311,1.468,3.2,3.2,0,0,1-.837,1.079,3.634,3.634,0,0,1-1.216.665,4.655,4.655,0,0,1-1.436.224,5.766,5.766,0,0,1-2.227-.423,4.079,4.079,0,0,1-1.744-1.424Z" transform="translate(119.499 46.209)" fill="#221f1f"/>
    <path id="Path_15" data-name="Path 15" d="M103.073,37.31l-2.848,6.7h5.61Zm-.535-1.244h1.175l5.144,12.224h-1.276l-1.33-3.246H99.774L98.393,48.29H97.2Z" transform="translate(125.007 46.383)" fill="#221f1f"/>
    <path id="Path_16" data-name="Path 16" d="M103.517,36.066h1.141V47.254h5.7V48.29h-6.838Z" transform="translate(133.128 46.383)" fill="#221f1f"/>
    <path id="Path_17" data-name="Path 17" d="M108.54,42.353a6.085,6.085,0,0,0,.361,2.124,5.047,5.047,0,0,0,1.036,1.708,4.808,4.808,0,0,0,1.632,1.141,5.793,5.793,0,0,0,4.3,0,4.808,4.808,0,0,0,1.632-1.141,5.047,5.047,0,0,0,1.036-1.708,6.386,6.386,0,0,0,0-4.247,5.047,5.047,0,0,0-1.036-1.708,4.807,4.807,0,0,0-1.632-1.141,5.793,5.793,0,0,0-4.3,0,4.808,4.808,0,0,0-1.632,1.141,5.047,5.047,0,0,0-1.036,1.708,6.085,6.085,0,0,0-.361,2.124m-1.141,0a6.9,6.9,0,0,1,.466-2.572,6.116,6.116,0,0,1,1.3-2.028,5.834,5.834,0,0,1,1.993-1.34,7.055,7.055,0,0,1,5.128,0,5.866,5.866,0,0,1,2,1.34,6.148,6.148,0,0,1,1.294,2.028,6.9,6.9,0,0,1,.466,2.572,6.973,6.973,0,0,1-.466,2.581,6.119,6.119,0,0,1-1.294,2.037,5.811,5.811,0,0,1-2,1.33,7.182,7.182,0,0,1-5.128,0,5.78,5.78,0,0,1-1.993-1.33,6.088,6.088,0,0,1-1.3-2.037,6.974,6.974,0,0,1-.466-2.581" transform="translate(138.121 46.209)" fill="#221f1f"/>
    <path id="Path_18" data-name="Path 18" d="M114.492,36.066h1.468l7.441,10.7h.034v-10.7h1.141V48.29h-1.468l-7.441-10.7h-.034v10.7h-1.141Z" transform="translate(147.243 46.383)" fill="#221f1f"/>
  </g>
</svg>
