<svg id="online_booking_icon" xmlns="http://www.w3.org/2000/svg" width="97.784" height="97.784" viewBox="0 0 97.784 97.784">
  <g id="Group_3053" data-name="Group 3053" transform="translate(0)">
    <g id="Group_3047" data-name="Group 3047">
      <path id="Path_1237" data-name="Path 1237" d="M50.917,97.784H4.29A4.29,4.29,0,0,1,0,93.494V81.2L1.967,45.639,0,10.078V4.29A4.29,4.29,0,0,1,4.29,0H50.917a4.29,4.29,0,0,1,4.29,4.29v5.788L53.239,45.639,55.207,81.2V93.494a4.29,4.29,0,0,1-4.29,4.29Z" transform="translate(0 0)" fill="#6b46cf"/>
      <path id="Path_1238" data-name="Path 1238" d="M230.953,4.29A4.29,4.29,0,0,0,226.663,0h-7.87a4.29,4.29,0,0,1,4.29,4.29v5.788l-1.967,35.561L223.083,81.2V93.494a4.29,4.29,0,0,1-4.29,4.29h7.87a4.29,4.29,0,0,0,4.29-4.29V81.2l-1.967-35.561,1.967-35.561Z" transform="translate(-175.746 0)" fill="#5f36cf"/>
      <path id="Path_1239" data-name="Path 1239" d="M0,51.222H55.207v71.122H0Z" transform="translate(0 -41.144)" fill="#e1f3ff"/>
      <path id="Path_1240" data-name="Path 1240" d="M240.6,51.222h7.87v71.122H240.6Z" transform="translate(-193.259 -41.144)" fill="#ccebff"/>
      <path id="Path_1241" data-name="Path 1241" d="M116.763,447.292H108.03a2.468,2.468,0,0,1,0-4.936h8.733a2.468,2.468,0,0,1,0,4.936Z" transform="translate(-84.793 -355.323)" fill="#5ed8f6"/>
    </g>
    <path id="Path_1242" data-name="Path 1242" d="M73.435,111.58H35.265a1.967,1.967,0,0,1-1.967-1.967V99.067A1.967,1.967,0,0,1,35.265,97.1H73.435A1.967,1.967,0,0,1,75.4,99.067v10.546A1.967,1.967,0,0,1,73.435,111.58Z" transform="translate(-26.747 -77.996)" fill="#fe75a7"/>
    <g id="Group_3049" data-name="Group 3049" transform="translate(13.164 41.176)">
      <circle id="Ellipse_3" data-name="Ellipse 3" cx="14.439" cy="14.439" r="14.439" fill="#d0ee7f"/>
      <path id="Path_1243" data-name="Path 1243" d="M124.233,209.286a14.442,14.442,0,0,0-3.935.547,14.438,14.438,0,0,1,0,27.784,14.439,14.439,0,1,0,3.935-28.331Z" transform="translate(-109.794 -209.286)" fill="#aee617"/>
      <g id="Group_3048" data-name="Group 3048" transform="translate(5.449 7.636)">
        <path id="Path_1244" data-name="Path 1244" d="M100.452,261.7a1.472,1.472,0,0,1-1.044-.432L95.035,256.9a1.476,1.476,0,0,1,2.087-2.087l3.329,3.329,9.613-9.613a1.476,1.476,0,1,1,2.087,2.087L101.495,261.27A1.471,1.471,0,0,1,100.452,261.7Z" transform="translate(-94.603 -248.095)" fill="#27a372"/>
      </g>
    </g>
    <g id="Group_3052" data-name="Group 3052" transform="translate(37.299 25.585)">
      <path id="Path_1245" data-name="Path 1245" d="M229.57,136.643a5.141,5.141,0,0,0-2.689,5.365,5.138,5.138,0,0,0-8.63,4.521,5.137,5.137,0,0,0-8.437,5.309L199.837,132.8a5.142,5.142,0,1,0-9.11,4.773l14.148,27.005.205.392-8.154-4.292a5.142,5.142,0,1,0-4.418,9.287l22.377,11.068a8.12,8.12,0,0,1,3.685,3.693,8.12,8.12,0,0,0,11.053,3.608l16.082-8.425a8.12,8.12,0,0,0,3.424-10.96,15.855,15.855,0,0,1-1.376-3.67l-.073-.3a73.392,73.392,0,0,0-6.369-16.991l-4.8-9.166A5.142,5.142,0,0,0,229.57,136.643Z" transform="translate(-189.575 -130.039)" fill="#f4e59e"/>
      <g id="Group_3050" data-name="Group 3050" transform="translate(32.35 6.016)">
        <path id="Path_1246" data-name="Path 1246" d="M381.2,193.5a15.841,15.841,0,0,1-1.376-3.67l-.073-.3a73.393,73.393,0,0,0-6.369-16.991l-4.8-9.166a5.14,5.14,0,0,0-8.489-.923,5.159,5.159,0,0,1,.619.923l4.8,9.166a73.392,73.392,0,0,1,6.369,16.991l.073.3a15.854,15.854,0,0,0,1.376,3.67,8.12,8.12,0,0,1-3.424,10.96L354,212.8a8.11,8.11,0,0,0,7.7.089l16.082-8.425A8.12,8.12,0,0,0,381.2,193.5Z" transform="translate(-353.997 -160.614)" fill="#ebdc94"/>
      </g>
      <g id="Group_3051" data-name="Group 3051" transform="translate(20.239 11.969)">
        <path id="Path_1247" data-name="Path 1247" d="M292.442,240.838l2.606,4.974" transform="translate(-292.442 -231.007)" fill="#fff1ab"/>
        <path id="Path_1248" data-name="Path 1248" d="M335.414,213.808l2.971,5.671" transform="translate(-326.959 -209.296)" fill="#fff1ab"/>
        <path id="Path_1249" data-name="Path 1249" d="M379.191,190.873l2.966,5.662" transform="translate(-362.123 -190.873)" fill="#fff1ab"/>
      </g>
    </g>
  </g>
</svg>
