<svg xmlns="http://www.w3.org/2000/svg" width="93.365" height="109.258" viewBox="0 0 93.365 109.258">
  <g id="mar_icon" transform="translate(-37.237)">
    <g id="Group_3126" data-name="Group 3126" transform="translate(37.237 0)">
      <g id="Group_3105" data-name="Group 3105" transform="translate(43.011 82.768)">
        <path id="Path_1309" data-name="Path 1309" d="M240.279,387.862q-3.907,9.329,2.443,12.482H248.2a3.36,3.36,0,0,0,3.346-3.353v-3.5C250.417,390.311,243.388,388.242,240.279,387.862Z" transform="translate(-238.793 -387.862)" fill="#beb9dd" fill-rule="evenodd"/>
      </g>
      <g id="Group_3106" data-name="Group 3106" transform="translate(27.784 53.511)">
        <path id="Path_1310" data-name="Path 1310" d="M210.411,292.5l4.954-21.162-4.954-20.577c-10.357,6.468-19.959,9.179-33.693,9.179h-5.259c-.087,0-.168,0-.249.006l-3.77,11.391,3.77,11.977h5.509a80.344,80.344,0,0,1,9.877.561A55.721,55.721,0,0,1,210.411,292.5Z" transform="translate(-167.439 -250.759)" fill="#eb5468" fill-rule="evenodd"/>
      </g>
      <g id="Group_3107" data-name="Group 3107" transform="translate(77.455 68.728)">
        <path id="Path_1311" data-name="Path 1311" d="M403.816,322.07h3.963a3.973,3.973,0,0,1,3.963,3.963V332.3a3.973,3.973,0,0,1-3.963,3.963h-3.963l-3.614-7.1Z" transform="translate(-400.202 -322.07)" fill="#dddaec" fill-rule="evenodd"/>
      </g>
      <g id="Group_3108" data-name="Group 3108" transform="translate(81.069 74.087)">
        <path id="Path_1312" data-name="Path 1312" d="M417.139,356.019H421.1a3.973,3.973,0,0,0,3.963-3.963v-4.873a3.973,3.973,0,0,1-3.963,3.963h-3.963Z" transform="translate(-417.139 -347.183)" fill="#beb9dd" fill-rule="evenodd"/>
      </g>
      <g id="Group_3109" data-name="Group 3109" transform="translate(20.113 62.696)">
        <path id="Path_1313" data-name="Path 1313" d="M142.933,317.17V293.8a11.687,11.687,0,0,0,0,23.368Z" transform="translate(-131.492 -293.802)" fill="#beb9dd" fill-rule="evenodd"/>
      </g>
      <g id="Group_3110" data-name="Group 3110" transform="translate(70.756 47.436)">
        <path id="Path_1314" data-name="Path 1314" d="M379.124,272.679V225.793c0-2.8.037-4.786-2.979-2.511-2.524,1.9-4.948,3.589-7.334,5.085v41.739c2.387,1.489,4.811,3.178,7.334,5.085C379.161,277.459,379.124,275.477,379.124,272.679Z" transform="translate(-368.811 -222.292)" fill="#ffd772" fill-rule="evenodd"/>
      </g>
      <g id="Group_3111" data-name="Group 3111" transform="translate(33.742 80.679)">
        <path id="Path_1315" data-name="Path 1315" d="M208.554,405.215V384.022s-3.2-5.946-6.742-5.946l-6.456,5.385,3.558,21.848c.243,1.19.424,1.346,1.95,1.346h6.256A1.442,1.442,0,0,0,208.554,405.215Z" transform="translate(-195.356 -378.076)" fill="#375e7d" fill-rule="evenodd"/>
      </g>
      <g id="Group_3112" data-name="Group 3112" transform="translate(20.113 69.937)">
        <path id="Path_1316" data-name="Path 1316" d="M142.933,334.969a11.729,11.729,0,0,1-10.556-7.235,11.607,11.607,0,0,0-.885,4.443,11.729,11.729,0,0,0,11.441,11.684Z" transform="translate(-131.492 -327.734)" fill="#a7a2d3" fill-rule="evenodd"/>
      </g>
      <g id="Group_3113" data-name="Group 3113" transform="translate(31.554 77.172)">
        <path id="Path_1317" data-name="Path 1317" d="M224.308,370.824a55.71,55.71,0,0,0-23.816-8.618,80.351,80.351,0,0,0-9.877-.561h-5.259l-.249-.006v8.892h5.509a80.344,80.344,0,0,1,9.877.561,55.72,55.72,0,0,1,23.816,8.625Z" transform="translate(-185.106 -361.639)" fill="#e5384f" fill-rule="evenodd"/>
      </g>
      <g id="Group_3114" data-name="Group 3114" transform="translate(70.756 86.357)">
        <path id="Path_1318" data-name="Path 1318" d="M379.124,407.593c-.006,2.617-.081,4.356-2.979,2.175-2.524-1.9-4.948-3.589-7.334-5.085v8.892c2.387,1.489,4.811,3.178,7.334,5.085,3.016,2.268,2.979.287,2.979-2.511Z" transform="translate(-368.811 -404.683)" fill="#fbba58" fill-rule="evenodd"/>
      </g>
      <g id="Group_3115" data-name="Group 3115" transform="translate(33.742 86.064)">
        <path id="Path_1319" data-name="Path 1319" d="M208.554,425.064V403.871a80.344,80.344,0,0,0-9.877-.561h-3.321l.748,4.587c2.169.031,4.231.137,6.219.318,2.711.249,2.087,2.412,2.087,5.266V426.5h2.711A1.443,1.443,0,0,0,208.554,425.064Z" transform="translate(-195.356 -403.31)" fill="#2b4d66" fill-rule="evenodd"/>
      </g>
      <g id="Group_3116" data-name="Group 3116" transform="translate(0 6.651)">
        <path id="Path_1320" data-name="Path 1320" d="M81.342,63.98A23.115,23.115,0,1,0,70.05,75.272l12.871,2.346a.66.66,0,0,0,.767-.767Z" transform="translate(-37.237 -31.166)" fill="#3bc3a4" fill-rule="evenodd"/>
      </g>
      <g id="Group_3117" data-name="Group 3117" transform="translate(57.826)">
        <path id="Path_1321" data-name="Path 1321" d="M341.222,26.9A17.767,17.767,0,0,0,326.759,0h-1.5a17.77,17.77,0,0,0-13.111,28.9l.636,9.811a.66.66,0,0,0,.93.558l8.958-4.056A17.768,17.768,0,0,0,341.222,26.9Z" transform="translate(-308.221 0)" fill="#9fd4fe" fill-rule="evenodd"/>
      </g>
      <g id="Group_3118" data-name="Group 3118" transform="translate(75.511)">
        <path id="Path_1322" data-name="Path 1322" d="M406.409,26.9A17.769,17.769,0,0,0,391.964,0c4.162,3.758,6.9,10.145,6.9,17.392,0,7.746-3.122,14.507-7.771,18.128A17.755,17.755,0,0,0,406.409,26.9Z" transform="translate(-391.092 0)" fill="#85beef" fill-rule="evenodd"/>
      </g>
      <g id="Group_3119" data-name="Group 3119" transform="translate(10.336 21.879)">
        <path id="Path_1323" data-name="Path 1323" d="M85.675,103.513V118.7a1.307,1.307,0,0,0,1.3,1.309h23.237a1.308,1.308,0,0,0,1.309-1.309V103.513a1.291,1.291,0,0,0-.461-.985L98.6,109.736,86.13,102.528A1.307,1.307,0,0,0,85.675,103.513Z" transform="translate(-85.675 -102.528)" fill="#fed1a3" fill-rule="evenodd"/>
      </g>
      <g id="Group_3120" data-name="Group 3120" transform="translate(10.791 21.561)">
        <path id="Path_1324" data-name="Path 1324" d="M87.807,101.357l12.469,9.466,12.463-9.466a1.273,1.273,0,0,0-.847-.318H88.654A1.3,1.3,0,0,0,87.807,101.357Z" transform="translate(-87.807 -101.039)" fill="#ffe5c1" fill-rule="evenodd"/>
      </g>
      <g id="Group_3121" data-name="Group 3121" transform="translate(70.351 8.243)">
        <path id="Path_1325" data-name="Path 1325" d="M366.913,48.169v8.469c0,1.066.442,1.383,1.452.742L381.893,48.8a.81.81,0,0,0,.442-.636.8.8,0,0,0-.442-.636l-13.528-8.575c-1.01-.642-1.452-.33-1.452.742Z" transform="translate(-366.913 -38.627)" fill="#eb5468" fill-rule="evenodd"/>
      </g>
      <g id="Group_3122" data-name="Group 3122" transform="translate(75.087 10.781)">
        <path id="Path_1326" data-name="Path 1326" d="M390.171,57.231a25.575,25.575,0,0,1-1.066,7.422l8.094-5.135,2.15-1.358a.81.81,0,0,0,.442-.636.8.8,0,0,0-.442-.636l-2.087-1.321-7.958-5.047A25.737,25.737,0,0,1,390.171,57.231Z" transform="translate(-389.106 -50.52)" fill="#e5384f" fill-rule="evenodd"/>
      </g>
      <g id="Group_3123" data-name="Group 3123" transform="translate(25.298 21.561)">
        <path id="Path_1327" data-name="Path 1327" d="M155.788,101.039a22.72,22.72,0,0,1,1.77,6.892l8.655-6.574a1.273,1.273,0,0,0-.847-.318Z" transform="translate(-155.788 -101.039)" fill="#fed1a3" fill-rule="evenodd"/>
      </g>
      <g id="Group_3124" data-name="Group 3124" transform="translate(25.454 21.879)">
        <path id="Path_1328" data-name="Path 1328" d="M158.237,111.3a22.767,22.767,0,0,1-1.72,8.712h9.422a1.308,1.308,0,0,0,1.309-1.309V103.515a1.291,1.291,0,0,0-.461-.985l-8.655,6.574C158.2,109.827,158.237,110.556,158.237,111.3Z" transform="translate(-156.517 -102.53)" fill="#ffbc85" fill-rule="evenodd"/>
      </g>
      <g id="Group_3125" data-name="Group 3125" transform="translate(12.424 6.65)">
        <path id="Path_1329" data-name="Path 1329" d="M108.332,46.074h9.578a1.273,1.273,0,0,1,.847.318,1.291,1.291,0,0,1,.461.985V62.563a1.309,1.309,0,0,1-1.309,1.309h-9.422A22.919,22.919,0,0,1,97.415,75.686a23.18,23.18,0,0,0,18.432-.418l12.871,2.346a.66.66,0,0,0,.767-.767l-2.346-12.871a23.123,23.123,0,0,0-31.68-30.2A22.973,22.973,0,0,1,108.332,46.074Z" transform="translate(-95.458 -31.163)" fill="#00a887" fill-rule="evenodd"/>
      </g>
    </g>
  </g>
</svg>
