<svg xmlns="http://www.w3.org/2000/svg" width="95.346" height="102.455" viewBox="0 0 95.346 102.455">
  <g id="egift_icon" transform="translate(-0.501 -0.001)">
    <path id="Path_1330" data-name="Path 1330" d="M85.809,37.544,38.044,85.31a5.528,5.528,0,0,1-7.817,0L2.12,57.2a5.528,5.528,0,0,1,0-7.817L49.884,1.62a5.528,5.528,0,0,1,7.817,0L85.809,29.728A5.526,5.526,0,0,1,85.809,37.544Zm0,0" fill="#8cbafa"/>
    <path id="Path_1331" data-name="Path 1331" d="M190.613,134.532l-3.507-3.508c1.922,1.922,1.73,5.23-.428,7.388l-47.765,47.765c-2.158,2.159-5.466,2.35-7.388.428l3.508,3.508a5.528,5.528,0,0,0,7.817,0l47.765-47.766A5.526,5.526,0,0,0,190.613,134.532Zm0,0" transform="translate(-104.804 -104.804)" fill="#5692d8"/>
    <path id="Path_1332" data-name="Path 1332" d="M48.488,170.506a1.5,1.5,0,0,1-1.062-2.562l23.4-23.4a1.5,1.5,0,0,1,2.122,2.122l-23.4,23.4A1.5,1.5,0,0,1,48.488,170.506Zm0,0" transform="translate(-37.183 -115.27)" fill="#252d4c"/>
    <path id="Path_1333" data-name="Path 1333" d="M85.644,207.662a1.5,1.5,0,0,1-1.062-2.562l23.4-23.4a1.5,1.5,0,0,1,2.122,2.122l-23.4,23.4A1.5,1.5,0,0,1,85.644,207.662Zm0,0" transform="translate(-66.904 -144.991)" fill="#252d4c"/>
    <path id="Path_1334" data-name="Path 1334" d="M219.16,56.98l-4.681,4.68a4.712,4.712,0,0,0,6.664,6.663l4.68-4.68a4.711,4.711,0,0,0-6.663-6.663Zm0,0" transform="translate(-170.056 -44.473)" fill="#ffcd34"/>
    <path id="Path_1335" data-name="Path 1335" d="M157.238,258.109H89.687a5.527,5.527,0,0,0-5.527,5.527v39.751a5.527,5.527,0,0,0,5.527,5.527h67.55a5.527,5.527,0,0,0,5.527-5.527V263.637A5.526,5.526,0,0,0,157.238,258.109Zm0,0" transform="translate(-66.918 -206.459)" fill="#ffcd34"/>
    <path id="Path_1336" data-name="Path 1336" d="M429.576,258.109h-4.947a5.527,5.527,0,0,1,5.527,5.527v39.751a5.527,5.527,0,0,1-5.527,5.527h4.947a5.527,5.527,0,0,0,5.527-5.527V263.637A5.526,5.526,0,0,0,429.576,258.109Zm0,0" transform="translate(-339.257 -206.459)" fill="#e69012"/>
    <path id="Path_1337" data-name="Path 1337" d="M84.16,320.516h78.605v9.55H84.16Zm0,0" transform="translate(-66.918 -256.377)" fill="#575b7a"/>
    <path id="Path_1338" data-name="Path 1338" d="M452.25,320.516H457.2v9.55H452.25Zm0,0" transform="translate(-361.351 -256.377)" fill="#252d4c"/>
    <path id="Path_1339" data-name="Path 1339" d="M380.43,441.2v5.89a.824.824,0,0,0,.825.825h9.368a.824.824,0,0,0,.825-.825V441.2a.824.824,0,0,0-.825-.825h-9.368A.824.824,0,0,0,380.43,441.2Zm0,0" transform="translate(-303.902 -352.249)" fill="#e9e9ea"/>
    <path id="Path_1340" data-name="Path 1340" d="M239.273,441.2v5.89a.825.825,0,0,0,.825.825h19.815a.824.824,0,0,0,.825-.825V441.2a.824.824,0,0,0-.825-.825H240.1A.825.825,0,0,0,239.273,441.2Zm0,0" transform="translate(-190.992 -352.249)" fill="#e9e9ea"/>
    <path id="Path_1341" data-name="Path 1341" d="M153.451,473.549h-9.872a1.5,1.5,0,0,1,0-3h9.872a1.5,1.5,0,0,1,0,3Zm0,0" transform="translate(-113.247 -376.386)" fill="#252d4c"/>
  </g>
</svg>
