<svg xmlns="http://www.w3.org/2000/svg" width="80.273" height="97.361" viewBox="0 0 80.273 97.361">
  <g id="icon_check_in" transform="translate(-488 -162.657)">
    <g id="Group_3040" data-name="Group 3040" transform="translate(488 162.657)">
      <g id="Group_3103" data-name="Group 3103" transform="translate(0 0)">
        <path id="Path_1192" data-name="Path 1192" d="M6.536,347.256a6.521,6.521,0,1,1,6.519-6.512,6.526,6.526,0,0,1-6.519,6.512M3.685,340.7a2.845,2.845,0,1,0,2.9-2.8,2.866,2.866,0,0,0-2.9,2.8" transform="translate(-0.005 -296.797)" fill="#9b45db"/>
        <path id="Path_1193" data-name="Path 1193" d="M6.54,167.11A6.521,6.521,0,1,1,0,173.6,6.528,6.528,0,0,1,6.54,167.11m-2.86,6.529a2.846,2.846,0,1,0,2.849-2.854,2.874,2.874,0,0,0-2.849,2.854" transform="translate(-0.001 -148.401)" fill="#9b45db"/>
        <path id="Path_1194" data-name="Path 1194" d="M180.784,6.544A6.506,6.506,0,1,1,174.384,0a6.477,6.477,0,0,1,6.4,6.543m-9.336-.012a2.834,2.834,0,1,0,2.829-2.855,2.841,2.841,0,0,0-2.829,2.855" transform="translate(-148.99 0)" fill="#9b45db"/>
        <path id="Path_1195" data-name="Path 1195" d="M6.434,13.019a6.51,6.51,0,1,1,6.612-6.288,6.5,6.5,0,0,1-6.612,6.288m.091-9.34A2.838,2.838,0,1,0,9.37,6.528a2.849,2.849,0,0,0-2.845-2.85" transform="translate(-0.001 -0.001)" fill="#9b45db"/>
        <path id="Path_1196" data-name="Path 1196" d="M180.788,173.635a6.509,6.509,0,1,1-6.433-6.522,6.508,6.508,0,0,1,6.433,6.522m-9.341.018a2.834,2.834,0,1,0,2.825-2.864,2.852,2.852,0,0,0-2.825,2.864" transform="translate(-148.987 -148.403)" fill="#9b45db"/>
        <path id="Path_1197" data-name="Path 1197" d="M334.42,6.522a6.514,6.514,0,1,1,6.507,6.505,6.495,6.495,0,0,1-6.507-6.505m6.495-2.844A2.839,2.839,0,1,0,343.77,6.51a2.85,2.85,0,0,0-2.856-2.833" transform="translate(-296.98 -0.001)" fill="#9b45db"/>
        <path id="Path_1198" data-name="Path 1198" d="M180.787,340.713a6.51,6.51,0,1,1-6.524-6.494,6.519,6.519,0,0,1,6.524,6.494m-9.343.03a2.834,2.834,0,1,0,2.848-2.846,2.845,2.845,0,0,0-2.848,2.846" transform="translate(-148.984 -296.801)" fill="#9b45db"/>
        <path id="Path_1199" data-name="Path 1199" d="M218.289,226.3q0-11.614.014-23.228a4.241,4.241,0,0,1,.325-1.676,2.754,2.754,0,0,1,3.131-1.489,2.811,2.811,0,0,1,2.211,2.743c.013,2.481,0,4.963,0,7.444q0,12.594,0,25.187a1.855,1.855,0,0,0,1.793,2.072,1.826,1.826,0,0,0,1.878-1.7c.014-.186.008-.373.008-.559q0-8.647,0-17.295a2.846,2.846,0,1,1,5.684.045q.009,5.709,0,11.418c0,2.369.044,4.74-.012,7.108a1.908,1.908,0,0,0,1.88,2.053,1.884,1.884,0,0,0,1.811-2.119q0-7.388,0-14.776a2.83,2.83,0,1,1,5.656-.166c.02,2.537.008,5.075.008,7.612,0,2.855-.005,5.709,0,8.564A1.83,1.83,0,0,0,244,239.412a1.745,1.745,0,0,0,2.047-.748,2.636,2.636,0,0,0,.3-1.217c.024-3.358,0-6.716.017-10.075a2.844,2.844,0,1,1,5.685.009c.009,3.19,0,6.381,0,9.571q0,6.465,0,12.929a18.981,18.981,0,0,1-15.725,18.965,18.183,18.183,0,0,1-16.7-5.141c-6.449-6.319-12.788-12.75-19.171-19.136a2.84,2.84,0,1,1,4.031-3.99c3.485,3.48,6.96,6.971,10.46,10.436a2.82,2.82,0,0,0,1.221.715,1.759,1.759,0,0,0,2.083-1.472,4.494,4.494,0,0,0,.029-.67q0-11.642,0-23.284" transform="translate(-177.19 -177.463)" fill="#fff"/>
        <path id="Path_1200" data-name="Path 1200" d="M32.862,369.879a2.845,2.845,0,1,1,2.817,2.887,2.868,2.868,0,0,1-2.817-2.887" transform="translate(-29.183 -325.979)" fill="#ffd422"/>
        <path id="Path_1201" data-name="Path 1201" d="M32.858,202.793a2.846,2.846,0,1,1,2.87,2.837,2.863,2.863,0,0,1-2.87-2.837" transform="translate(-29.179 -177.554)" fill="#ffd422"/>
        <path id="Path_1202" data-name="Path 1202" d="M200.6,35.7a2.834,2.834,0,1,1,2.812,2.823A2.83,2.83,0,0,1,200.6,35.7" transform="translate(-178.146 -29.163)" fill="#ffd422"/>
        <path id="Path_1203" data-name="Path 1203" d="M35.7,32.842a2.838,2.838,0,1,1-2.846,2.85,2.849,2.849,0,0,1,2.846-2.85" transform="translate(-29.18 -29.165)" fill="#ffd422"/>
        <path id="Path_1204" data-name="Path 1204" d="M200.612,202.818a2.834,2.834,0,1,1,2.87,2.825,2.838,2.838,0,0,1-2.87-2.825" transform="translate(-178.152 -177.568)" fill="#ffd422"/>
        <path id="Path_1205" data-name="Path 1205" d="M370.007,32.84a2.839,2.839,0,1,1-2.826,2.868,2.836,2.836,0,0,1,2.826-2.868" transform="translate(-326.072 -29.163)" fill="#ffd422"/>
        <path id="Path_1206" data-name="Path 1206" d="M200.613,369.921a2.834,2.834,0,1,1,2.848,2.845,2.848,2.848,0,0,1-2.848-2.845" transform="translate(-178.153 -325.979)" fill="#ffd422"/>
      </g>
    </g>
    <g id="Group_3101" data-name="Group 3101" transform="translate(506.427 180.135)">
      <path id="Path_1299" data-name="Path 1299" d="M316.763,210.72c-.175-.005-.348,0-.52.01l-3.7,4.472-.506-1.763a5.172,5.172,0,0,0-.626,2.473v-1.07a5.34,5.34,0,0,0-5.036-5.411c-.143,0-.285,0-.426.006l-1.293,2.374-2.28,2.1-.741-1.739a5.169,5.169,0,0,0-.615,2.452v-1.07a5.34,5.34,0,0,0-5.037-5.411c-.143,0-.285,0-.425.006l-1.007,1.288-2.342,3.237-.624-2.341a5.172,5.172,0,0,0-.957,3v-26.7A5.525,5.525,0,0,0,288.4,182.2h-1.429l-1.356,2.314v36.65l-5.379-.342a2.176,2.176,0,0,1-3.589,1.658,35.932,35.932,0,0,0-9.582-6.1l-1.62.893v3.7l17.746,20.95,5.208,11.42,7.157,6.244,5.533,1.512a20.929,20.929,0,0,0,20.558-19.063c.1-1.139.153-2.192.153-3.048V216.131a5.34,5.34,0,0,0-5.036-5.411Z" transform="translate(-259.953 -181.224)" fill="#ffcebe"/>
      <g id="Group_3098" data-name="Group 3098" transform="translate(0 0)">
        <path id="Path_1300" data-name="Path 1300" d="M327.238,217.8a30.63,30.63,0,0,0,2.418,2.436,2.176,2.176,0,0,0,3.589-1.658V183.312a5.189,5.189,0,0,1,2.163-4.219,4.979,4.979,0,0,0-2.809-.975,5.2,5.2,0,0,0-5.355,5.193v34.4C327.244,217.744,327.239,217.771,327.238,217.8Z" transform="translate(-306.964 -178.116)" fill="#ffb1a0"/>
        <path id="Path_1301" data-name="Path 1301" d="M269.611,353.818a20.55,20.55,0,0,0-3.365-6.535c-5.966-6.731-13.023-15.071-16.276-18.938a4.482,4.482,0,0,1-.363-5.268c-.34-.134-.68-.261-1.023-.374a4.636,4.636,0,0,0-5.205,1.528,4.487,4.487,0,0,0,.169,5.558c3.253,3.867,10.31,12.206,16.276,18.938a20.555,20.555,0,0,1,3.365,6.535,18.617,18.617,0,0,0,17.547,12.528c.892,0,1.707.006,2.458.011a20.927,20.927,0,0,0,2.307-.116C278.3,366.816,272.035,360.738,269.611,353.818Z" transform="translate(-242.497 -287.919)" fill="#ffb1a0"/>
      </g>
      <g id="Group_3099" data-name="Group 3099" transform="translate(30.672 26.926)">
        <path id="Path_1302" data-name="Path 1302" d="M373.161,302.183a2.465,2.465,0,0,0,2.465-2.465v-9.061a5.2,5.2,0,0,0-4.93,5.187v3.874A2.465,2.465,0,0,0,373.161,302.183Z" transform="translate(-370.696 -290.657)" fill="#ffb1a0"/>
        <path id="Path_1303" data-name="Path 1303" d="M416.595,306.28a2.465,2.465,0,0,0,2.465-2.465v-7.773a5.2,5.2,0,0,0-4.929,5.187v2.585A2.464,2.464,0,0,0,416.595,306.28Z" transform="translate(-403.738 -294.754)" fill="#ffb1a0"/>
        <path id="Path_1304" data-name="Path 1304" d="M462.491,307.926v-5.81a2.464,2.464,0,0,0-.094-.67,5.2,5.2,0,0,0-4.836,5.181v1.3a2.465,2.465,0,1,0,4.93,0Z" transform="translate(-436.778 -298.865)" fill="#ffb1a0"/>
      </g>
    </g>
  </g>
</svg>
