<?xml version="1.0" encoding="utf-8"?>
<!-- Generator: Adobe Illustrator 26.0.1, SVG Export Plug-In . SVG Version: 6.00 Build 0)  -->
<svg version="1.1" id="Layer_1" xmlns="http://www.w3.org/2000/svg" xmlns:xlink="http://www.w3.org/1999/xlink" x="0px" y="0px"
	 viewBox="0 0 595.3 312" style="enable-background:new 0 0 595.3 312;" xml:space="preserve">
<style type="text/css">
	.st0{fill:#3C75F0;}
	.st1{fill:#FFFFFF;}
	.st2{fill:#FFFFFF;stroke:#221F1F;stroke-width:2.0988;stroke-miterlimit:10;}
	.st3{fill:none;stroke:#221F1F;stroke-width:2.0988;stroke-miterlimit:10;}
</style>
<g>
	<g>
		<path class="st0" d="M198.6,23.3H91.7c-5.9,0-11.4,3.2-14.3,8.3l-53.4,92.6c-3,5.1-3,11.4,0,16.6l53.4,92.6
			c3,5.1,8.4,8.3,14.3,8.3h106.9c5.9,0,11.4-3.2,14.3-8.3l53.4-92.6c3-5.1,3-11.4,0-16.6L213,31.6C210,26.5,204.6,23.3,198.6,23.3z"
			/>
		<path class="st1" d="M213.7,89.8h-38.2c-4.2,0-6.6-2.7-7.7-4.5l-16.6-30c-1.6-2.9-4.5-4.4-7.6-4.4c-1.4,0-2.9,0.3-4.2,1.1
			c-4.2,2.3-5.7,7.6-3.4,11.8c0,0,12.6,22.7,27.4,49.3c10.7,19.2,22.5,40.3,31.4,56.4c5.1,9.1,9.2,16.5,11.8,21
			c3.5,6.3,1.6,13.4-0.1,17.1c-3.2,6.9-6.6,11.9-17.1,15.2c-1.2,0.4-2.6,0.2-3.3,0.2H93.6c-2.5,0-5-1-6.5-3c-0.8-0.9-1.5-2-2.1-3.4
			c-5-9.9-10.3-19.8-15.8-30.2c-3.1-5.8,1.1-12.8,7.6-12.8h37.5c4.3,0.2,6.5,1.8,8.2,4.8l4.8,8.6l10.6,19.1c1.6,2.9,4.5,4.4,7.6,4.4
			c1.4,0,2.9-0.3,4.2-1.1c4.2-2.3,5.7-7.6,3.4-11.8l-15.8-28.4l-9.9-17.7l-21.6-38.7L80.8,68.7c-2.3-4.1-1.7-11.2,0.1-16.2
			c2.6-7.1,5.3-10,11.7-12.8c1.4-0.6,2-1,4.3-1.2H195c1.1,0,2.2,0.2,3.2,0.6c2.5,1,4.4,2.9,6,6.1c5.3,10.5,11,20.8,17,31.8
			C224.5,82.7,220.3,89.8,213.7,89.8z"/>
		<path class="st2" d="M246.6,123.9"/>
		<path class="st2" d="M207.1,50.7"/>
		<path class="st2" d="M174.7,132.5"/>
		<path class="st2" d="M268.6,132.5"/>
		<path class="st3" d="M198.9,149.4"/>
		<path class="st3" d="M158,67.4"/>
	</g>
	<g>
		<g>
			<path class="st0" d="M291.5,137.3h26.6l-0.6,2.2c-0.2,0.8-0.4,1.6-0.8,2.5c-0.1,0.3-0.3,0.7-0.4,1.1l-0.4,1
				c3.8-1.5,7.3-2.8,10.7-3.9c4.2-1.3,8.1-2.3,11.8-3c9.2-1.7,17-1.4,23.3,1c4.1,1.6,6.8,4.4,8.1,8.4c0.5,1.5,0.8,3.1,0.9,5l0,2.2
				c0,0.6-0.1,1.3-0.2,2c-0.7,3.6-1.9,7.6-3.8,12c-2,5-5.3,11.4-9.7,19.4l-5.6,10.1c-8.6,15.5-15.5,25.6-20.6,30.3
				c-9.5,9.7-23.5,14.6-42.1,14.6c-3.2,0-6.2-0.2-9-0.6l-6.5-1.3c-2.4-0.7-4.2-1.4-5.4-2l-24.6,44.5l-35.4,5.9L291.5,137.3z
				 M283.2,210.6c3.7,3,7.9,4.5,12.6,4.5l4.8-0.2c6.7-1.3,11.8-5.2,15.4-11.6l13.4-24.2c1.6-2.9,2.6-5.1,2.8-6.5
				c1.7-6.5-2.2-9-11.6-7.6l-3.8,0.6l-7,1.7l-2.9,0.9L283.2,210.6z"/>
			<path class="st0" d="M463.2,180l-10.6,19.1c-11,19.9-25.4,33-43.1,39.3c-8.8,3-18.1,4.5-27.9,4.5c-21.3,0-31.4-6.9-30.2-20.8
				c0.2-5.8,2.6-12.9,7.3-21.2l12.6-22.8c11.2-20.3,27.2-33.3,47.8-38.9c7.8-2,14.6-3,20.4-3h3.1c21.8,0,31.3,8.3,28.5,24.9
				C470,166.2,467.4,172.5,463.2,180z M431.9,178.9c4.6-8.3,4.9-13.1,1-14.5c-1-0.8-2.8-1.1-5.6-1.1h-2.6c-5.7,0-11,2.3-15.9,6.9
				c-1.7,2-3.3,4.2-4.6,6.7L389.7,203c-5,9-2.8,13.5,6.5,13.5h0.9c7.4,0,13.8-3.3,19.2-9.8l1.5-2.5c0.1-0.1,0.1-0.3,0.2-0.4
				L431.9,178.9z"/>
			<path class="st0" d="M525,229.2c-4.8,3.7-10.2,6.6-16.1,8.9c-4.9,1.8-10.1,3.1-15.8,3.9c-3.8,0.5-8.2,0.9-13.3,1
				c-7.1,0-14.4-0.4-22-1.1c-6.5-0.6-11.8-1.4-15.8-2.4l12.4-27.8l3.7,0.9c1.9,0.4,3.9,0.8,5.8,1.1c5.6,1,10.8,1.7,15.6,2.2
				c6.3,0.6,11.7,0.6,16.1,0.1c5.4-0.6,9.1-2.1,11.3-4.3c3.3-3.5-0.2-6.8-10.4-9.8l-6.6-2.1c-2.6-0.9-4.9-1.8-6.7-2.7
				c-4.8-2.3-8-5-9.6-8.3c-1.8-3-2-6.8-0.6-11.3c1-3.1,2.9-6.9,5.7-11.3c4.3-6.3,9.2-11.7,14.9-16c4.8-3.7,10.3-6.6,16.3-8.9
				c4.8-1.8,10-3,15.7-3.8c3.7-0.6,8.2-1,13.4-1.1c6.4-0.3,13-0.1,19.9,0.6c5.1,0.4,10,1.1,14.6,2l-12.3,27.4
				c-2.8-0.6-6.2-1.3-10.2-1.9c-5.1-0.8-10-1.3-14.5-1.5c-5.7-0.3-10.5-0.2-14.4,0.5c-4.7,0.8-8.1,2.2-10.1,4.2
				c-3.6,3.7-0.1,7.2,10.4,10.5l6.8,2.1c2.7,0.9,4.9,1.8,6.7,2.7c4.9,2.2,8.1,4.7,9.5,7.5c1.4,3.4,1.5,7.2,0.1,11.6
				c-1,3.1-3,6.9-5.8,11.4C535.6,219.6,530.7,224.9,525,229.2z"/>
		</g>
	</g>
</g>
</svg>
